<svg width="172" height="73" viewBox="0 0 172 73" fill="none" xmlns="http://www.w3.org/2000/svg">
<path d="M3.51562 49V6.03125H16.3574V10.2305H8.56934V24.9277H15.9424V29.127H8.56934V44.8008H16.4551V49H3.51562ZM21.9727 49V6.03125H25.7812L35.7422 35.2793L35.2295 22.8525V6.03125H39.6973V49H35.9863L26.3428 19.5078L26.6357 30.3477V49H21.9727ZM46.7285 49V6.03125H51.7822V49H46.7285Z" fill="#86B3F3"/>
<path d="M62.3047 49L56.6406 6.03125H61.3037L64.9658 38.9658L69.8486 6.03125H73.9746L78.9795 38.9658L82.0801 6.03125H86.7188L81.6406 49H76.6357L72.0459 17.2861L67.1875 49H62.3047ZM91.5527 49V6.03125H96.6064V24.415H103.491V6.03125H108.545V49H103.491V28.541H96.6064V49H91.5527ZM115.576 49V6.03125H128.418V10.2305H120.63V24.9277H128.003V29.127H120.63V44.8008H128.516V49H115.576ZM134.033 49V6.03125H143.042C145.321 6.03125 147.005 6.43815 148.096 7.25195C149.186 8.04948 149.894 9.26204 150.22 10.8896C150.562 12.501 150.732 14.5355 150.732 16.9932C150.732 19.6462 150.464 21.7539 149.927 23.3164C149.39 24.8789 148.348 25.888 146.802 26.3438C147.583 26.474 148.226 26.8076 148.73 27.3447C149.251 27.8818 149.658 28.7201 149.951 29.8594C150.244 30.9987 150.448 32.5286 150.562 34.4492C150.692 36.3535 150.757 38.7542 150.757 41.6514C150.757 41.9281 150.757 42.3268 150.757 42.8477C150.757 43.3685 150.765 43.9382 150.781 44.5566C150.798 45.1751 150.814 45.7855 150.83 46.3877C150.863 46.9899 150.903 47.527 150.952 47.999C151.001 48.4548 151.066 48.7884 151.147 49H146.118C146.053 48.8535 145.996 48.528 145.947 48.0234C145.898 47.5189 145.858 46.8516 145.825 46.0215C145.793 45.1914 145.768 44.2067 145.752 43.0674C145.736 41.9118 145.728 40.626 145.728 39.21C145.728 37.7777 145.728 36.2152 145.728 34.5225C145.728 32.8949 145.654 31.6579 145.508 30.8115C145.378 29.9489 145.052 29.3548 144.531 29.0293C144.027 28.6875 143.213 28.484 142.09 28.4189L139.087 28.248V49H134.033ZM139.087 24.5371H142.31C143.237 24.5371 143.945 24.3581 144.434 24C144.938 23.6257 145.28 22.8932 145.459 21.8027C145.638 20.696 145.728 19.0439 145.728 16.8467V16.5537C145.728 14.7308 145.638 13.3555 145.459 12.4277C145.296 11.4837 144.971 10.849 144.482 10.5234C143.994 10.1979 143.254 10.0352 142.261 10.0352H139.087V24.5371ZM156.982 49V6.03125H169.824V10.2305H162.036V24.9277H169.409V29.127H162.036V44.8008H169.922V49H156.982Z" fill="white"/>
<path d="M3.75781 71.7913V50.3069H10.1787V52.4065H6.28467V59.7551H9.97119V61.8547H6.28467V69.6917H10.2275V71.7913H3.75781ZM13.2363 71.7913V50.3069H15.1406L20.1211 64.9309L19.8647 58.7175V50.3069H22.0986V71.7913H20.2432L15.4214 57.0452L15.5679 62.4651V71.7913H13.2363ZM25.8643 71.7913V50.3069H28.3911V71.7913H25.8643ZM35.7944 71.9988C34.5493 71.9988 33.5931 71.4861 32.9258 70.4607C32.2585 69.4353 31.9248 67.7467 31.9248 65.3948V56.386C31.9248 55.442 31.9899 54.5875 32.1201 53.8225C32.2585 53.0494 32.4904 52.3821 32.8159 51.8206C33.1414 51.259 33.585 50.8277 34.1465 50.5266C34.7161 50.2255 35.4323 50.075 36.2949 50.075C37.1901 50.075 37.9022 50.2296 38.4312 50.5388C38.9683 50.8399 39.3752 51.2712 39.6519 51.8328C39.9285 52.3943 40.1117 53.0657 40.2012 53.8469C40.2907 54.6282 40.3354 55.4908 40.3354 56.4348V58.095H37.894V55.2996C37.894 54.2579 37.7882 53.4889 37.5767 52.9924C37.3732 52.4879 36.946 52.2356 36.2949 52.2356C35.6032 52.2356 35.123 52.5326 34.8545 53.1267C34.5859 53.7208 34.4517 54.7706 34.4517 56.2761V65.3093C34.4517 66.9532 34.5615 68.1292 34.7812 68.8372C35.0091 69.5452 35.4893 69.8992 36.2217 69.8992C36.9215 69.8992 37.3936 69.5452 37.6377 68.8372C37.89 68.121 38.0161 66.9288 38.0161 65.2605V62.4651H36.2705V60.512H40.3354V71.7913H39.0049L38.6631 70.1311C38.4352 70.7333 38.0731 71.1972 37.5767 71.5227C37.0884 71.8401 36.4943 71.9988 35.7944 71.9988ZM43.8936 71.7913V50.3069H46.7988L50.1191 67.4822L53.2808 50.3069H56.1982V71.7913H54.0376V63.6614L54.2451 55.6292L51.0103 71.7913H49.2036L45.8345 55.6292L46.042 63.6614V71.7913H43.8936ZM58.8164 71.7913L62.0757 50.3069H65.1152L68.6675 71.7913H66.2871L65.6768 67.6897H61.7827L61.2212 71.7913H58.8164ZM62.0635 65.6389H65.3594L63.6626 54.2864H63.626L62.0635 65.6389ZM81.0449 72.0354C80.1742 72.0354 79.4661 71.8808 78.9209 71.5715C78.3757 71.2542 77.9565 70.8066 77.6636 70.2288C77.3706 69.651 77.1672 68.9714 77.0532 68.1902C76.9474 67.4008 76.8945 66.53 76.8945 65.5779V63.4905H79.3481V65.6755C79.3481 67.1811 79.4539 68.2594 79.6655 68.9104C79.8853 69.5533 80.3532 69.8748 81.0693 69.8748C81.5658 69.8748 81.9279 69.7608 82.1558 69.533C82.3918 69.297 82.5423 68.9226 82.6074 68.4099C82.6725 67.8972 82.7051 67.2218 82.7051 66.3835C82.7051 65.4233 82.5342 64.5972 82.1924 63.9055C81.8587 63.2138 81.3745 62.5505 80.7397 61.9158L79.3359 60.512C78.929 60.0969 78.5303 59.6453 78.1396 59.157C77.749 58.6606 77.4235 58.099 77.1631 57.4724C76.9108 56.8458 76.7847 56.1296 76.7847 55.324C76.7847 54.2416 76.8986 53.3057 77.1265 52.5164C77.3543 51.727 77.7694 51.1166 78.3716 50.6853C78.9738 50.254 79.8283 50.0383 80.9351 50.0383C81.8058 50.0383 82.5016 50.1889 83.0225 50.49C83.5514 50.7911 83.9461 51.2224 84.2065 51.7839C84.4751 52.3373 84.6501 52.9965 84.7314 53.7615C84.821 54.5264 84.8657 55.3728 84.8657 56.3005V57.5701H82.4487V56.1296C82.4487 55.2589 82.4121 54.5346 82.3389 53.9568C82.2738 53.3708 82.1354 52.9314 81.9238 52.6384C81.7122 52.3455 81.3826 52.199 80.9351 52.199C80.5282 52.199 80.1945 52.3007 79.9341 52.5042C79.6818 52.6995 79.4987 53.0046 79.3848 53.4197C79.2708 53.8347 79.2139 54.3678 79.2139 55.0188C79.2139 55.5885 79.283 56.0605 79.4214 56.4348C79.5597 56.801 79.7673 57.1428 80.0439 57.4602C80.3288 57.7776 80.6746 58.1519 81.0815 58.5833L82.5464 60.1335C83.3195 60.9392 83.9502 61.8425 84.4385 62.8435C84.9349 63.8363 85.1831 64.9919 85.1831 66.3103C85.1831 67.4985 85.0651 68.5198 84.8291 69.3743C84.6012 70.2288 84.1903 70.8879 83.5962 71.3518C83.0021 71.8075 82.1517 72.0354 81.0449 72.0354ZM91.9639 72.0354C90.8896 72.0354 90.0392 71.7994 89.4126 71.3274C88.7941 70.8554 88.3506 70.1433 88.082 69.1912C87.8216 68.239 87.6914 67.0468 87.6914 65.6145V56.1418C87.6914 54.9049 87.8135 53.8306 88.0576 52.9192C88.3018 52.0077 88.7371 51.2997 89.3638 50.7952C89.9904 50.2906 90.8774 50.0383 92.0249 50.0383C92.8875 50.0383 93.5915 50.1848 94.1367 50.4778C94.682 50.7626 95.1011 51.1736 95.394 51.7107C95.6951 52.2397 95.9027 52.8785 96.0166 53.6272C96.1305 54.3759 96.1875 55.2141 96.1875 56.1418V65.6145C96.1875 67.0468 96.0573 68.239 95.7969 69.1912C95.5446 70.1433 95.1092 70.8554 94.4907 71.3274C93.8804 71.7994 93.0381 72.0354 91.9639 72.0354ZM91.9639 69.8625C92.4277 69.8625 92.7817 69.7323 93.0259 69.4719C93.27 69.2034 93.4368 68.7598 93.5264 68.1414C93.6159 67.5229 93.6606 66.6887 93.6606 65.6389V55.9954C93.6606 54.7096 93.5589 53.7574 93.3555 53.1389C93.152 52.5204 92.7085 52.2112 92.0249 52.2112C91.3169 52.2112 90.8368 52.5204 90.5845 53.1389C90.3403 53.7493 90.2183 54.6973 90.2183 55.9832V65.6389C90.2183 66.6969 90.263 67.5351 90.3525 68.1536C90.4421 68.7639 90.613 69.2034 90.8652 69.4719C91.1175 69.7323 91.4837 69.8625 91.9639 69.8625ZM99.709 71.7913V50.3069H102.236V69.7039H106.203V71.7913H99.709ZM112.544 72.0476C111.486 72.0476 110.644 71.8401 110.018 71.425C109.399 71.0019 108.956 70.363 108.687 69.5085C108.418 68.6541 108.284 67.5758 108.284 66.2737V50.3069H110.811V66.2126C110.811 66.9858 110.84 67.649 110.896 68.2024C110.953 68.7558 111.104 69.179 111.348 69.4719C111.592 69.7649 111.991 69.9114 112.544 69.9114C113.106 69.9114 113.505 69.7649 113.741 69.4719C113.977 69.179 114.119 68.7598 114.168 68.2146C114.225 67.6612 114.253 66.998 114.253 66.2249V50.3069H116.768V66.2737C116.768 67.5758 116.638 68.6541 116.377 69.5085C116.117 70.363 115.678 71.0019 115.059 71.425C114.449 71.8401 113.611 72.0476 112.544 72.0476ZM121.254 71.7913V52.4065H118.886V50.3069H125.978V52.4065H123.769V71.7913H121.254ZM128.291 71.7913V50.3069H130.818V71.7913H128.291ZM138.624 72.0354C137.55 72.0354 136.699 71.7994 136.073 71.3274C135.454 70.8554 135.011 70.1433 134.742 69.1912C134.482 68.239 134.352 67.0468 134.352 65.6145V56.1418C134.352 54.9049 134.474 53.8306 134.718 52.9192C134.962 52.0077 135.397 51.2997 136.024 50.7952C136.651 50.2906 137.538 50.0383 138.685 50.0383C139.548 50.0383 140.252 50.1848 140.797 50.4778C141.342 50.7626 141.761 51.1736 142.054 51.7107C142.355 52.2397 142.563 52.8785 142.677 53.6272C142.791 54.3759 142.848 55.2141 142.848 56.1418V65.6145C142.848 67.0468 142.717 68.239 142.457 69.1912C142.205 70.1433 141.769 70.8554 141.151 71.3274C140.541 71.7994 139.698 72.0354 138.624 72.0354ZM138.624 69.8625C139.088 69.8625 139.442 69.7323 139.686 69.4719C139.93 69.2034 140.097 68.7598 140.187 68.1414C140.276 67.5229 140.321 66.6887 140.321 65.6389V55.9954C140.321 54.7096 140.219 53.7574 140.016 53.1389C139.812 52.5204 139.369 52.2112 138.685 52.2112C137.977 52.2112 137.497 52.5204 137.245 53.1389C137 53.7493 136.878 54.6973 136.878 55.9832V65.6389C136.878 66.6969 136.923 67.5351 137.013 68.1536C137.102 68.7639 137.273 69.2034 137.525 69.4719C137.778 69.7323 138.144 69.8625 138.624 69.8625ZM146.369 71.7913V50.3069H148.273L153.254 64.9309L152.998 58.7175V50.3069H155.231V71.7913H153.376L148.554 57.0452L148.701 62.4651V71.7913H146.369ZM162.464 72.0354C161.593 72.0354 160.885 71.8808 160.34 71.5715C159.795 71.2542 159.375 70.8066 159.083 70.2288C158.79 69.651 158.586 68.9714 158.472 68.1902C158.366 67.4008 158.313 66.53 158.313 65.5779V63.4905H160.767V65.6755C160.767 67.1811 160.873 68.2594 161.084 68.9104C161.304 69.5533 161.772 69.8748 162.488 69.8748C162.985 69.8748 163.347 69.7608 163.575 69.533C163.811 69.297 163.961 68.9226 164.026 68.4099C164.091 67.8972 164.124 67.2218 164.124 66.3835C164.124 65.4233 163.953 64.5972 163.611 63.9055C163.278 63.2138 162.793 62.5505 162.159 61.9158L160.755 60.512C160.348 60.0969 159.949 59.6453 159.559 59.157C159.168 58.6606 158.842 58.099 158.582 57.4724C158.33 56.8458 158.204 56.1296 158.204 55.324C158.204 54.2416 158.318 53.3057 158.545 52.5164C158.773 51.727 159.188 51.1166 159.791 50.6853C160.393 50.254 161.247 50.0383 162.354 50.0383C163.225 50.0383 163.921 50.1889 164.441 50.49C164.97 50.7911 165.365 51.2224 165.625 51.7839C165.894 52.3373 166.069 52.9965 166.15 53.7615C166.24 54.5264 166.285 55.3728 166.285 56.3005V57.5701H163.868V56.1296C163.868 55.2589 163.831 54.5346 163.758 53.9568C163.693 53.3708 163.554 52.9314 163.343 52.6384C163.131 52.3455 162.802 52.199 162.354 52.199C161.947 52.199 161.613 52.3007 161.353 52.5042C161.101 52.6995 160.918 53.0046 160.804 53.4197C160.69 53.8347 160.633 54.3678 160.633 55.0188C160.633 55.5885 160.702 56.0605 160.84 56.4348C160.979 56.801 161.186 57.1428 161.463 57.4602C161.748 57.7776 162.094 58.1519 162.5 58.5833L163.965 60.1335C164.738 60.9392 165.369 61.8425 165.857 62.8435C166.354 63.8363 166.602 64.9919 166.602 66.3103C166.602 67.4985 166.484 68.5198 166.248 69.3743C166.02 70.2288 165.609 70.8879 165.015 71.3518C164.421 71.8075 163.571 72.0354 162.464 72.0354Z" fill="white"/>
</svg>
