<?xml version="1.0" standalone="no"?>
<!DOCTYPE svg PUBLIC "-//W3C//DTD SVG 20010904//EN"
 "http://www.w3.org/TR/2001/REC-SVG-20010904/DTD/svg10.dtd">
<svg version="1.0" xmlns="http://www.w3.org/2000/svg"
 width="2048.000000pt" height="2048.000000pt" viewBox="0 0 2048.000000 2048.000000"
 preserveAspectRatio="xMidYMid meet">

<g transform="translate(0.000000,2048.000000) scale(0.100000,-0.100000)"
fill="#000000" stroke="none">
<path d="M9940 19739 c-1105 -29 -2274 -279 -3315 -709 -368 -152 -767 -348
-1100 -538 -2017 -1156 -3530 -2988 -4280 -5182 -525 -1539 -647 -3188 -354
-4780 205 -1110 590 -2145 1157 -3110 614 -1044 1437 -1977 2397 -2716 1449
-1115 3198 -1790 5025 -1939 1012 -83 2045 -1 3025 240 2207 543 4120 1830
5448 3667 431 596 793 1244 1077 1929 610 1470 842 3082 669 4664 -390 3583
-2767 6633 -6149 7888 -933 346 -1991 557 -2925 583 -336 9 -421 9 -675 3z
m880 -254 c545 -36 988 -100 1490 -216 2045 -469 3854 -1606 5165 -3244 1031
-1289 1698 -2827 1934 -4460 113 -787 123 -1693 25 -2462 -128 -1015 -408
-1967 -851 -2894 -282 -589 -683 -1225 -1107 -1754 -1053 -1316 -2458 -2327
-4040 -2910 -793 -292 -1591 -466 -2487 -542 -291 -25 -1127 -25 -1418 0 -671
57 -1264 165 -1864 338 -2185 631 -4073 2055 -5283 3989 -751 1198 -1219 2569
-1363 3990 -43 416 -54 1079 -26 1510 80 1224 394 2406 931 3495 424 861 938
1598 1620 2320 137 145 410 410 442 429 8 5 3 -17 -11 -56 -65 -171 -163 -562
-207 -817 -32 -190 -42 -333 -41 -583 1 -371 39 -697 111 -951 16 -59 30 -109
30 -111 0 -14 -162 -54 -272 -66 -184 -21 -308 37 -456 216 -72 87 -100 143
-113 229 -10 62 -2 181 17 253 8 30 -4 28 -59 -9 -102 -67 -199 -211 -227
-334 -6 -27 -11 -90 -11 -140 1 -206 128 -485 290 -637 l65 -61 -130 -126
c-139 -136 -315 -274 -456 -359 -224 -135 -506 -231 -680 -232 -38 0 -68 -1
-68 -3 0 -1 52 -56 116 -122 64 -66 120 -127 125 -136 7 -14 0 -22 -39 -44
-132 -75 -372 -231 -378 -244 -15 -37 -42 -146 -38 -152 2 -4 46 -30 97 -56
210 -111 487 -313 628 -459 143 -148 218 -257 434 -634 185 -322 300 -483 573
-798 234 -271 547 -533 1007 -844 657 -445 1263 -712 1774 -784 l105 -15 27
28 c113 118 679 767 672 773 -4 4 -70 28 -145 53 -256 87 -518 230 -672 369
-75 67 -169 184 -206 257 -61 123 -88 264 -70 376 23 146 77 250 185 360 79
81 154 134 270 192 757 380 2232 184 2825 -374 143 -134 228 -279 257 -438 27
-149 -5 -301 -93 -433 -20 -30 -34 -56 -32 -58 3 -2 274 5 604 17 329 11 614
17 632 14 47 -9 60 -37 67 -145 3 -52 8 -118 11 -147 5 -51 6 -51 32 -43 148
47 501 163 517 170 11 5 32 14 48 20 15 5 27 13 27 18 0 10 -62 39 -171 80
-67 25 -327 178 -329 192 0 4 38 12 85 18 187 27 359 95 532 210 88 59 133 97
133 114 0 4 -17 15 -37 23 -58 25 -126 71 -252 173 -105 84 -417 361 -548 487
l-52 50 10 70 c6 39 12 197 14 353 l4 283 105 80 c399 304 694 728 839 1209
46 151 64 241 83 413 15 138 16 383 0 417 -8 19 -138 102 -256 163 -184 97
-454 187 -685 228 -118 21 -160 24 -445 24 l-315 0 -50 28 c-27 15 -87 58
-132 95 -204 169 -451 263 -768 292 -66 5 -141 12 -167 15 l-48 4 0 -42 c0
-125 -58 -404 -122 -586 -63 -182 -161 -345 -268 -450 -58 -57 -149 -117 -137
-90 71 164 102 290 118 477 32 369 -75 741 -300 1037 -36 48 -86 118 -111 154
-32 46 -66 80 -115 114 -237 164 -578 328 -826 396 -39 11 -78 28 -85 38 -8
10 -41 73 -75 140 -141 283 -379 582 -659 828 -302 265 -700 537 -1033 705
-75 38 -138 72 -138 76 0 7 209 149 376 255 874 551 1848 955 2865 1188 500
115 987 185 1525 220 223 14 891 12 1125 -4z m-5110 -2854 c162 -55 288 -133
466 -291 127 -113 249 -247 316 -349 42 -65 48 -80 48 -128 0 -196 -121 -407
-320 -556 -186 -140 -727 -335 -1090 -392 -127 -20 -173 -19 -193 3 -23 25
-104 237 -127 332 -47 198 -51 450 -11 642 80 382 295 679 555 765 28 9 77 12
151 9 91 -3 126 -9 205 -35z m680 -2617 c142 -25 227 -56 418 -156 289 -150
443 -261 633 -455 122 -124 228 -256 342 -428 83 -126 206 -363 234 -452 9
-29 19 -53 23 -53 3 0 30 25 60 56 112 114 282 245 444 341 260 154 608 240
865 214 181 -19 392 -111 497 -218 137 -138 234 -417 234 -673 0 -153 -29
-283 -97 -440 -70 -159 -286 -438 -416 -536 -70 -53 -190 -114 -224 -114 -12
0 -47 22 -80 51 -32 28 -102 83 -155 121 -54 38 -98 72 -98 75 0 2 13 23 29
47 57 82 154 288 187 396 20 66 37 237 29 300 -21 174 -106 309 -233 368 -47
22 -71 27 -138 27 -72 0 -87 -4 -155 -37 -50 -25 -92 -55 -124 -89 l-47 -51
45 -46 c123 -125 122 -310 -2 -397 -41 -29 -47 -30 -154 -31 -124 0 -123 0
-126 -81 -1 -17 -5 -34 -10 -37 -5 -3 -42 6 -82 20 -126 43 -292 83 -441 105
-182 27 -500 29 -692 5 -72 -8 -131 -14 -133 -12 -2 2 7 44 21 92 79 288 88
455 35 661 -33 130 -113 251 -206 312 -212 141 -463 60 -593 -190 l-41 -78 54
-26 c81 -38 141 -96 179 -173 62 -125 39 -267 -61 -374 -51 -56 -125 -96 -197
-108 -31 -5 -59 -12 -62 -14 -8 -8 29 -185 54 -261 13 -38 24 -73 24 -77 0 -3
-30 -23 -67 -44 l-67 -37 -50 26 c-28 14 -125 61 -216 106 -202 98 -327 189
-490 357 -340 351 -473 653 -457 1034 7 152 17 217 54 340 59 198 144 316 313
435 168 118 385 190 665 219 82 9 383 -4 475 -20z m4285 -74 c245 -42 407
-100 520 -188 60 -47 61 -61 11 -191 -105 -272 -351 -697 -521 -899 -83 -99
-197 -202 -225 -202 -29 0 -38 20 -55 125 -31 198 -105 427 -219 685 -91 204
-172 342 -270 460 -25 30 -46 63 -46 72 0 57 201 134 420 162 68 8 267 -4 385
-24z"/>
<path d="M8801 17819 c-136 -26 -294 -100 -402 -187 -67 -54 -174 -170 -226
-247 -30 -44 -88 -155 -101 -194 -14 -38 -19 -39 93 3 239 89 505 122 657 81
139 -36 260 -124 304 -220 37 -81 38 -127 10 -240 -43 -164 -104 -277 -252
-461 -111 -138 -254 -253 -381 -309 -66 -28 -57 -41 57 -75 61 -18 98 -23 200
-22 147 0 246 18 375 69 348 137 583 388 687 733 29 95 35 290 14 397 -66 322
-312 575 -640 658 -81 21 -121 25 -225 24 -69 -1 -146 -5 -170 -10z"/>
<path d="M15599 11800 c-661 -49 -1353 -267 -1975 -623 -399 -228 -719 -467
-1043 -782 -484 -471 -838 -977 -1202 -1720 -329 -673 -446 -1053 -519 -1690
-12 -99 -24 -248 -27 -331 l-6 -150 43 -130 c156 -470 460 -1044 779 -1472
294 -394 614 -708 1001 -979 550 -387 1242 -658 2032 -797 276 -49 643 -86
850 -86 l107 0 153 120 c1493 1175 2566 2772 3093 4605 197 688 306 1368 341
2137 l7 148 -53 92 c-258 449 -610 793 -1105 1078 -491 283 -1180 499 -1807
565 -182 19 -516 26 -669 15z"/>
<path d="M7376 11288 c-62 -36 -92 -83 -118 -180 -20 -78 -21 -92 -10 -135 28
-103 138 -204 297 -271 123 -52 223 -73 376 -79 237 -10 329 29 393 167 84
180 -44 346 -335 434 -151 46 -318 77 -444 82 -112 5 -123 4 -159 -18z"/>
<path d="M3368 10062 c-152 -114 -351 -306 -497 -482 -149 -179 -366 -547
-442 -752 -161 -429 -237 -813 -254 -1271 -10 -277 37 -721 105 -985 44 -172
147 -447 231 -614 207 -415 466 -779 794 -1117 239 -246 439 -414 700 -588
105 -70 348 -213 362 -213 3 0 60 -34 127 -75 383 -235 792 -358 1446 -436
338 -41 714 -24 925 41 364 113 844 443 1116 768 238 285 383 598 429 927 14
98 13 465 0 555 -24 153 -114 384 -204 523 -107 167 -369 454 -508 558 -140
104 -475 260 -705 329 -214 63 -526 135 -708 164 -55 8 -242 31 -416 51 -540
60 -698 86 -914 146 -296 84 -541 199 -820 384 -186 124 -279 201 -411 337
-185 194 -283 350 -353 564 -57 175 -74 287 -74 494 0 246 38 446 124 644 21
50 39 94 39 99 0 14 -16 5 -92 -51z"/>
<path d="M3645 10078 c-40 -99 -77 -220 -98 -323 -32 -162 -32 -461 2 -625 81
-394 275 -711 573 -936 110 -82 251 -168 354 -215 110 -49 586 -209 625 -209
4 0 14 13 22 29 8 16 219 259 468 541 250 281 455 514 457 518 1 4 -60 20
-135 35 -255 53 -647 199 -981 366 -467 234 -993 588 -1217 820 -21 23 -42 41
-46 41 -4 0 -15 -19 -24 -42z"/>
<path d="M8735 9948 c-825 -28 -1502 -52 -1504 -54 -4 -4 15 -820 45 -1947 8
-280 5 -297 -45 -316 -14 -5 -156 -14 -316 -20 -558 -21 -959 -41 -952 -47 2
-3 109 -13 238 -24 638 -54 893 -117 1286 -314 73 -36 135 -66 137 -66 2 0 -3
19 -11 43 -18 51 -13 149 10 194 28 53 68 93 121 121 44 23 63 26 141 26 70 0
100 -4 136 -20 63 -29 116 -78 147 -138 53 -101 30 -249 -51 -335 -39 -41
-120 -81 -164 -81 -18 0 -33 -3 -33 -6 0 -4 41 -45 92 -93 81 -76 185 -195
228 -260 10 -15 31 -26 65 -32 192 -36 287 -194 224 -374 l-20 -60 29 -90 30
-90 83 -6 c109 -7 175 -36 234 -101 51 -56 65 -97 65 -184 0 -156 -147 -304
-302 -304 -42 0 -37 11 -63 -135 -35 -196 -168 -529 -296 -744 -166 -276 -411
-523 -729 -734 -58 -38 -130 -82 -160 -97 -50 -25 -331 -139 -422 -171 -21 -7
-38 -16 -38 -20 0 -18 108 -24 173 -10 23 6 76 17 117 26 41 10 113 27 160 40
47 13 110 29 140 35 108 24 437 138 575 199 293 131 553 287 870 524 507 380
850 766 1160 1307 93 160 296 570 293 587 -2 7 -61 65 -133 130 -71 65 -156
150 -188 188 -250 296 -431 707 -507 1152 -86 501 37 1078 307 1438 129 171
287 310 426 376 l66 31 -5 116 c-11 285 -14 330 -20 346 -10 25 -58 46 -101
45 -21 -1 -713 -24 -1538 -51z m-102 -1653 c18 -9 74 -66 124 -128 51 -62 149
-175 219 -252 201 -224 237 -278 202 -313 -29 -29 -56 -13 -130 76 -40 48
-113 132 -163 187 -50 55 -119 134 -154 175 -36 41 -67 76 -70 78 -9 3 5 -183
24 -333 8 -66 18 -164 21 -218 6 -85 5 -100 -11 -117 -10 -11 -26 -20 -36 -20
-34 0 -46 27 -54 117 -3 48 -15 162 -25 253 -10 91 -22 207 -25 258 -4 50 -10
92 -14 92 -3 0 -56 -50 -116 -111 -149 -150 -353 -329 -375 -329 -23 0 -50 26
-50 49 0 25 9 35 160 169 74 66 180 166 235 222 90 92 174 160 198 160 5 0 23
-7 40 -15z m808 -791 c109 -54 166 -187 139 -320 -32 -154 -131 -247 -265
-248 -184 -1 -316 188 -262 375 54 186 229 273 388 193z m-702 -210 c75 -22
160 -107 191 -189 62 -167 2 -316 -162 -402 -45 -23 -65 -28 -133 -28 -68 0
-88 5 -133 28 -246 129 -268 413 -43 545 103 60 186 74 280 46z m444 -670 c60
-20 130 -82 157 -140 66 -136 -20 -339 -168 -395 -130 -49 -281 13 -348 143
-25 48 -29 144 -10 210 20 70 83 143 151 174 60 29 149 32 218 8z"/>
<path d="M6195 8785 c-495 -563 -900 -1030 -900 -1036 0 -8 47 -25 120 -43
l120 -30 255 12 c140 7 370 16 510 22 140 6 345 15 455 20 110 6 234 10 275
10 130 0 120 -16 120 189 0 97 -4 313 -10 481 -19 591 -31 1037 -31 1200 -1
91 -4 173 -7 182 -5 13 -231 -238 -907 -1007z"/>
<path d="M10430 9353 c-167 -58 -405 -305 -524 -542 -173 -343 -230 -761 -161
-1166 58 -338 198 -686 378 -937 118 -165 347 -402 368 -381 5 5 29 63 53 128
24 66 63 170 86 230 55 142 75 246 95 480 22 274 53 428 155 790 104 364 203
623 299 778 49 81 49 86 -23 207 -99 166 -219 291 -343 358 -124 66 -285 89
-383 55z"/>
<path d="M9880 4763 c-152 -182 -434 -454 -635 -613 -44 -34 -83 -69 -86 -78
-21 -57 114 -533 226 -797 217 -511 444 -853 810 -1221 194 -195 306 -290 508
-431 159 -111 302 -198 454 -276 l101 -51 174 23 c592 78 1221 230 1798 433
146 51 472 178 483 188 5 4 -40 19 -100 34 -905 225 -1637 584 -2242 1100
-148 125 -442 421 -609 613 -323 370 -520 646 -726 1014 -41 73 -78 135 -83
136 -5 2 -38 -32 -73 -74z"/>
<path d="M3599 4161 c22 -41 501 -513 676 -665 615 -538 1235 -956 1942 -1309
754 -378 1567 -649 2398 -801 177 -32 533 -86 571 -86 10 0 -36 55 -114 135
-292 300 -517 610 -740 1016 -121 221 -243 552 -342 927 -6 23 -15 42 -21 42
-6 0 -71 -23 -145 -50 -249 -94 -514 -156 -785 -186 -208 -22 -635 -15 -854
15 -460 63 -1045 226 -1440 401 -71 32 -200 88 -285 125 -260 113 -664 323
-849 444 -23 15 -24 15 -12 -8z"/>
</g>
</svg>
